<svg viewBox="0 0 140 55" id="mainLogo" fill="none" stroke-linejoin="round" xmlns="http://www.w3.org/2000/svg" xmlns:xlink="http://www.w3.org/1999/xlink">
	<defs>
		<linearGradient id="hoverGrad" x1="0%" y1="0%" x2="100%" y2="100%"
		                gradientUnits="userSpaceOnUse">
			<stop offset="0%" stop-color="#FF9200"/>
			<stop offset="100%" stop-color="#FF004E"/>
		</linearGradient>
	</defs>

	<!-- S -->
	<g stroke="url('#hoverGrad')">
		<path d="M15.9,10.5c0-4.2-3.7-5.9-6.8-6c-3.3-0.1-6.5,2-6.6,4.6s1.1,4.4,6.6,5.8s6.8,3.1,7.1,5.8 s-3.4,5.2-7.1,5.1c-3.2-0.1-7.3-1.6-7.3-6"/>
	</g>

	<!-- C -->
	<g stroke="url('#hoverGrad')">
		<path d="M34.7,11c0-1.9-1.3-6.7-7.2-6.5s-7.2,6-7.3,8.1s-0.1,2.8,0,4.9c0.3,5.4,3.9,8.3,7.3,8.2 c3.4-0.1,7.2-1.7,7.2-6.5"/>
	</g>

	<!-- H -->
	<g stroke="url('#hoverGrad')">
		<line x1="40.5" y1="4.5" x2="40.5" y2="25.8"/>
		<polyline points="55,4.5 55,25.8"/>
		<path d="M40.5,14.7, 55,14.7"/>
	</g>

	<!-- A -->
	<g stroke="url('#hoverGrad')">
		<polyline points="85.8,25.8 88.2,19.3 93.7,4.5 99.2,19.3 101.7,25.8"/>
		<line x1="99.2" y1="19.3" x2="88.2" y2="19.3"/>
	</g>

	<!-- R -->
	<g stroke="url('#hoverGrad')">
		<path d="M106.1,16.3c0,0,5.6,0.1,8.1,0s4.7-3,4.9-5.2c0.2-4-2.9-6.3-6.3-6.3s-6.8,0-6.8,0v21"/>
		<line x1="119.8" y1="25.8" x2="113.9" y2="16.3"/>
	</g>

	<!-- Z -->
	<g stroke="url('#hoverGrad')">
		<polyline points="124.3,4.8 138.4,4.8 124.3,25.4 138.4,25.4"/>
	</g>

	<!-- W -->
	<g stroke="url('#hoverGrad')">
		<polyline points="59.7,4.8 71.8,50.1 84,4.8"/>
		<polyline points="65.3,25.8 71.8,4.8 78.4,25.8"/>
	</g>

	<!-- A -->
	<g stroke="url('#hoverGrad')">
		<polyline points="49,50.4 51.4,43.9 57,29.1 62.5,43.9 64.9,50.4"/>
		<line x1="62.5" y1="43.9" x2="51.4" y2="43.9"/>
	</g>

	<!-- I -->
	<g stroke="url('#hoverGrad')">
		<line x1="82.4" y1="29.2" x2="82.4" y2="50.4"/>
	</g>

	<!-- D -->
	<g stroke="url('#hoverGrad')">
		<path d="M89.6,41.9V29.4c0,0,3.9,0,6.2,0c2.3,0,7.8,2.6,7.7,8.1c0,1.9,0,3.3,0,4.3 c0,6.7-6.7,8.2-7.7,8.2c-1,0-6.2,0-6.2,0V41.9z"/>
	</g>

	<!-- D -->
	<g stroke="url('#hoverGrad')">
		<path d="M32.1,41.9V29.5c0,0,3.9,0,6.2,0s7.8,2.6,7.7,8.1c0,1.9,0,3.3,0,4.3c0,6.7-6.7,8.2-7.7,8.2 c-1,0-6.2,0-6.2,0V41.9z"/>
	</g>
</svg>